PathFileType	4	(X/Y/Z)	D:\TRACE\v60_Jaco2_6-2-23\v60_baseline_4-v60.trc
DataRate	CameraRate	NumFrames	NumMarkers	Units	OrigDataRate	OrigDataStartFrame	OrigNumFrames
100.00	100.00	      31	9	mm	100.00	2438	      6500
Frame#	Time	front left toe			Front right toe			aft left toe			aft right toe			Arm			FL body			FR body			AL Body			AR Body			
		X1	Y1	Z1	X2	Y2	Z2	X3	Y3	Z3	X4	Y4	Z4	X5	Y5	Z5	X6	Y6	Z6	X7	Y7	Z7	X8	Y8	Z8	X9	Y9	Z9	

2438	24.370	-183.30701	18.71180	-201.06371	194.73143	83.19831	-234.13519	-137.89688	78.42768	410.72028	229.38277	16.76092	402.04208	-96.15235	1214.30273	-328.48575	-72.51074	583.16791	-341.63382	87.57778	583.22009	-350.39514	-20.61660	553.00897	602.67444	136.09763	547.48016	594.44128	
2439	24.380	-183.30708	18.50630	-201.00987	195.86124	94.41103	-234.22977	-139.05637	89.71290	411.02991	229.41908	16.75754	402.00900	-96.32340	1213.52539	-328.32248	-72.39130	582.80341	-341.45160	87.52369	582.72656	-350.43774	-20.06489	552.41388	602.92218	136.70181	547.04468	594.47717	
2440	24.390	-183.26207	18.37016	-200.96411	196.35817	105.12468	-233.76608	-138.26222	100.04789	411.76202	229.54703	16.63240	402.04791	-97.42467	1212.55188	-327.50421	-72.22501	582.18707	-341.17288	87.91914	582.20490	-350.20993	-19.63112	552.34387	602.99988	137.05762	546.82166	594.52716	
2441	24.400	-183.25134	18.24246	-200.91934	196.64592	114.86030	-232.86412	-139.35387	110.96246	411.76740	229.58391	16.49394	402.03836	-97.34838	1212.89941	-327.57657	-72.61367	581.62854	-341.02274	87.74178	581.76697	-350.10455	-19.21283	552.18463	603.24847	137.00024	546.29114	594.84485	
2442	24.410	-183.25992	18.19833	-200.88017	197.53702	124.06330	-231.96680	-138.38992	120.10075	412.17346	229.82224	16.60119	402.07678	-97.37508	1212.93079	-326.88449	-72.81606	581.11908	-340.71860	87.61239	581.22339	-349.88531	-18.82707	552.35120	603.26617	137.52023	546.33594	595.07941	
2443	24.420	-183.31483	18.03903	-200.74550	198.06738	131.75494	-231.18904	-137.56905	127.63185	413.24847	229.82446	16.51848	402.14597	-97.73750	1212.44714	-326.70532	-73.10458	580.58295	-340.37167	87.13323	580.30334	-349.37851	-18.50218	552.40942	603.46222	137.84901	546.33453	595.24652	
2444	24.430	-183.43486	18.07450	-200.66368	198.19292	137.87721	-230.24123	-137.01317	133.58286	414.32104	229.99823	16.47952	402.24847	-97.88917	1211.60559	-327.31616	-73.32355	580.04169	-339.83963	86.79713	579.79352	-349.11957	-17.82918	552.39484	604.08905	138.47797	546.37201	595.44733	
2445	24.440	-183.39114	18.03786	-200.57025	198.76791	143.06726	-229.44174	-137.98695	138.36607	415.48615	230.03537	16.31282	402.30814	-97.69001	1210.71191	-327.77069	-73.26040	579.53467	-339.44876	86.90624	579.58228	-349.24765	-17.23945	552.46259	604.58606	139.29829	546.48065	595.76807	
2446	24.450	-183.39656	18.02245	-200.43991	199.79405	145.71375	-228.14258	-138.31415	140.55215	416.89737	230.06967	16.27438	402.29337	-97.55428	1210.30420	-327.96744	-73.73267	579.32855	-338.92532	86.62650	579.34747	-348.87921	-16.65647	552.44147	605.04034	139.64357	546.47961	595.87604	
2447	24.460	-183.44958	18.02985	-200.34377	199.97827	145.60385	-227.21083	-139.29544	141.21704	418.23050	230.11273	16.30026	402.29037	-97.85053	1210.12195	-327.99341	-74.16914	579.25629	-338.49060	86.45673	579.05646	-348.49948	-16.39550	552.67334	605.35114	140.29358	546.81134	596.29260	
2448	24.470	-183.56633	18.00286	-200.32254	200.17542	142.61186	-225.61186	-139.48309	139.58949	419.55435	230.25929	16.34890	402.32080	-98.39724	1210.14319	-327.18951	-74.41338	579.07629	-338.26773	86.05019	578.93359	-348.32724	-15.74877	552.66553	605.95966	140.67479	546.96539	596.63263	
2449	24.480	-183.51715	17.91904	-200.28455	199.55640	138.43652	-224.24683	-138.73553	136.24934	421.21957	230.34810	16.41330	402.32745	-99.84708	1209.92566	-326.50763	-74.24113	578.66156	-337.82407	85.90630	578.71185	-347.93774	-15.27694	552.88379	606.24817	140.99648	547.28754	596.88824	
2450	24.490	-183.45624	17.96503	-200.23074	199.20830	133.40263	-222.96420	-138.60577	132.46239	423.12650	230.35048	16.37832	402.30322	-99.12756	1210.16077	-326.04034	-74.57893	578.60168	-337.42148	85.66349	578.59503	-347.69470	-14.79100	553.68488	606.32062	141.59770	547.50519	597.08105	
2451	24.500	-183.35217	17.98335	-200.16725	198.76753	127.62282	-221.98982	-138.68484	127.52943	424.79358	230.27606	16.33464	402.34067	-99.01502	1210.21362	-325.57791	-74.37833	578.48987	-336.80798	85.07557	578.42548	-347.10565	-14.79907	553.62128	606.79028	141.95596	547.54913	597.29028	
2452	24.510	-183.44075	18.10802	-200.15425	198.50327	121.74832	-220.91243	-139.67245	121.84301	426.12247	230.33476	16.25723	402.28738	-98.83967	1210.31519	-325.81262	-75.49104	579.05652	-336.79169	85.24934	578.74243	-347.17410	-14.39813	553.52625	606.99725	142.21170	547.45245	597.37805	
2453	24.520	-183.53746	18.12663	-200.00352	198.79826	115.31512	-220.17719	-140.06668	114.68436	427.42026	230.40541	16.27345	402.30573	-98.39318	1210.31543	-325.59763	-75.67136	579.19275	-336.40918	84.74232	579.05188	-347.45792	-13.81613	553.22333	607.55115	142.06140	546.88855	597.56024	
2454	24.530	-183.58585	18.04401	-200.00516	198.96326	108.44909	-219.99199	-140.74747	107.23384	428.45148	230.50253	16.22533	402.26440	-98.25070	1210.25537	-325.28299	-75.79840	579.13507	-336.00345	84.44576	578.93689	-346.59811	-13.40744	552.94196	607.89453	142.37337	546.77533	597.74664	
2455	24.540	-183.62666	18.02116	-199.97235	198.98776	100.80902	-219.83772	-140.36230	98.22236	429.68576	230.47366	16.19865	402.31140	-98.65320	1210.43616	-324.72183	-76.07207	579.06281	-335.46439	83.96995	578.72754	-346.40741	-13.30524	553.22803	608.11029	142.84048	546.90265	598.22589	
2456	24.550	-183.50401	17.96493	-199.89101	198.87262	92.78416	-219.13559	-141.00786	90.44869	430.28629	230.56950	16.12043	402.26697	-98.67014	1210.48755	-323.95746	-76.22939	578.97119	-335.15588	83.82201	578.47998	-346.05246	-13.14569	553.22504	608.44318	143.41513	547.05658	598.56122	
2457	24.560	-183.49702	18.00295	-199.81821	198.08098	84.30981	-218.62498	-141.41391	81.96815	430.97974	230.44417	16.06622	402.27853	-99.27691	1210.52747	-323.64282	-76.45718	578.89862	-334.82770	83.27534	578.26526	-345.43884	-13.19947	553.22845	608.58533	143.49031	546.96301	598.69720	
2458	24.570	-183.64354	18.06397	-199.82005	197.71021	75.41396	-217.77507	-141.94751	73.94298	431.58301	230.58786	16.09738	402.26639	-98.83746	1210.40234	-322.93420	-76.62031	578.90820	-334.47476	83.58520	578.47552	-345.70700	-12.95463	553.15540	608.77795	144.12068	546.92029	598.76312	
2459	24.580	-183.71750	18.07701	-199.72894	197.50214	66.66728	-216.89844	-142.61108	65.42143	431.77655	230.55214	16.05457	402.27466	-99.24657	1210.29285	-322.73230	-76.81236	578.99048	-334.31485	83.19228	578.38190	-345.50986	-12.48982	552.71497	609.45642	143.85725	546.66565	598.96393	
2460	24.590	-183.72827	18.04035	-199.70120	197.51257	58.26329	-216.42430	-143.46584	56.75841	432.12762	230.56560	16.02704	402.23767	-99.38829	1210.22424	-322.58304	-77.27386	578.94513	-333.89395	82.92954	578.34296	-345.22617	-12.45043	552.48895	609.80145	143.89436	546.44977	599.34021	
2461	24.600	-183.64798	17.91097	-199.64861	198.41824	50.08022	-216.24614	-143.21317	48.37798	432.67084	230.57698	16.00185	402.23355	-99.55978	1210.22021	-322.20709	-77.37854	578.76825	-333.54590	82.61086	578.29938	-344.94791	-12.64700	552.59894	609.87421	143.93114	546.39307	599.62671	
2462	24.610	-183.62981	17.80057	-199.57571	198.58516	42.34831	-215.97289	-142.86581	40.31123	432.74051	230.39986	16.09891	402.32220	-99.76422	1210.12048	-321.84723	-77.74585	578.78729	-333.37064	82.38966	578.29932	-344.63495	-12.46435	552.46271	610.04211	143.66139	546.02094	599.85388	
2463	24.620	-183.63358	17.80202	-199.49448	198.83774	35.17310	-215.69313	-142.58904	32.84148	432.88083	230.66957	16.01953	402.30011	-100.60585	1210.26221	-321.67648	-78.05363	578.92987	-333.09299	82.13362	578.30249	-344.40393	-12.42644	552.42786	610.18475	143.92427	546.27002	600.15839	
2464	24.630	-183.68230	17.86113	-199.53282	198.83527	28.66735	-215.51596	-142.20648	26.10773	432.71100	230.44743	16.11198	402.34067	-101.02010	1210.39905	-321.29471	-78.18829	578.97473	-332.93567	82.19820	578.41376	-344.24863	-12.46752	552.18811	610.44971	143.86179	546.09583	600.29901	
2465	24.640	-183.65657	17.89712	-199.46953	198.41628	22.31658	-215.45599	-142.44058	19.75338	432.56201	230.37610	16.07101	402.34967	-101.42565	1210.38721	-320.85907	-78.29424	578.94794	-332.64200	81.53762	578.37042	-343.36176	-12.30975	551.89496	610.82068	143.78323	545.92822	600.48157	
2466	24.650	-183.61044	17.79092	-199.52437	198.46292	19.83870	-217.42067	-142.84473	18.14309	430.56580	230.43138	16.09299	402.33792	-101.79768	1210.25989	-320.39761	-78.63043	579.01770	-332.38419	81.82399	578.77435	-343.87302	-12.38865	551.73724	611.13129	143.76451	545.92883	600.59918	
2467	24.660	-183.55113	17.71270	-199.42030	198.83406	16.59963	-217.17139	-143.95000	16.41491	430.60144	230.42665	15.97058	402.28497	-102.19867	1210.34900	-319.70026	-78.77683	579.21887	-332.29840	80.74845	579.09448	-343.28400	-12.35687	552.57166	611.52386	143.93497	546.72461	600.73981	
2468	24.670	-183.43657	18.05439	-199.37529	199.10020	17.39404	-217.52483	-143.53239	16.44921	431.69885	230.24583	16.41193	402.22360	-102.82208	1210.76941	-319.68542	-79.31639	579.81641	-331.59964	80.87133	579.73987	-343.39371	-12.32769	554.09460	611.66919	144.30487	547.94513	601.11139	
